<svg id="Layer_1" data-name="Layer 1" xmlns="http://www.w3.org/2000/svg" viewBox="0 0 365.5 96.67">
  <defs>
    <style>
      .cls-3{fill:#00a2e5}
    </style>
    <clipPath id="clip-path">
      <path fill="none" d="M0 0h255v97.99H0z"/>
    </clipPath>
  </defs>
  <g clip-path="url(#clip-path)">
    <path class="cls-3" d="M58.08 18.04A30.75 30.75 0 1 0 88.83 48.8a30.75 30.75 0 0 0-30.75-30.75m0 43.55a12.8 12.8 0 1 1 12.8-12.8 12.8 12.8 0 0 1-12.8 12.8M185.12 30.47a9.6 9.6 0 0 0-19.2 0v36a9.6 9.6 0 0 0 19.2 0v-36zM224.25 18.04A30.75 30.75 0 1 0 255 48.8a30.75 30.75 0 0 0-30.75-30.75m0 43.49a12.8 12.8 0 1 1 12.8-12.8 12.8 12.8 0 0 1-12.8 12.8M19.2 9.58a9.6 9.6 0 0 0-19.2 0V66.6a9.6 9.6 0 0 0 19.2 0V9.58z"/>
    <path d="M160.22 81.7l-9.4-13.93A30.75 30.75 0 1 0 134.9 78.5l9.39 13.91.01.03a9.6 9.6 0 0 0 15.92-10.74zm-44.31-25.64a12.8 12.8 0 1 1 17.77 3.48 12.8 12.8 0 0 1-17.77-3.48" fill="#a6a8ab"/>
  </g>
  <path d="M268.3 28.5h1.2v6.68h.2a2.61 2.61 0 0 1 1.06-1.5 3.35 3.35 0 0 1 1.87-.5 3.5 3.5 0 0 1 3.06 1.5 7.52 7.52 0 0 1 1.04 4.32 7.52 7.52 0 0 1-1.04 4.33 3.5 3.5 0 0 1-3.06 1.5 3.36 3.36 0 0 1-1.87-.5 2.62 2.62 0 0 1-1.07-1.5h-.19v1.73h-1.2zm4.02 15.28a2.8 2.8 0 0 0 2.32-1 4.36 4.36 0 0 0 .8-2.79v-1.97a4.36 4.36 0 0 0-.8-2.8 2.8 2.8 0 0 0-2.32-1 3.38 3.38 0 0 0-1.1.18 2.81 2.81 0 0 0-.9.5 2.28 2.28 0 0 0-.61.79 2.36 2.36 0 0 0-.22 1.02v4.59a2.37 2.37 0 0 0 .22 1.03 2.28 2.28 0 0 0 .6.78 2.8 2.8 0 0 0 .9.5 3.35 3.35 0 0 0 1.11.17zM285.88 42.83h-.18a2.78 2.78 0 0 1-1.05 1.47 3.3 3.3 0 0 1-1.95.53 2.94 2.94 0 0 1-2.38-1 4.5 4.5 0 0 1-.83-2.96v-7.43h1.2v7.38a3.46 3.46 0 0 0 .6 2.19 2.2 2.2 0 0 0 1.85.77 3.19 3.19 0 0 0 1.06-.17 2.49 2.49 0 0 0 .87-.51 2.46 2.46 0 0 0 .59-.83 2.68 2.68 0 0 0 .21-1.1v-7.73h1.2v11.12h-1.2zM291.2 30.38a.82.82 0 0 1-.62-.2.73.73 0 0 1-.18-.52v-.3a.73.73 0 0 1 .18-.52 1.08 1.08 0 0 1 1.24 0 .72.72 0 0 1 .18.52v.3a.73.73 0 0 1-.18.52.82.82 0 0 1-.62.2zm-.6 3.06h1.19v11.12h-1.2zM296.65 44.56a1.07 1.07 0 0 1-1.26-1.26V28.5h1.2v15.02h1.5v1.04zM307.05 42.83h-.2a2.62 2.62 0 0 1-1.06 1.5 3.36 3.36 0 0 1-1.87.5 3.5 3.5 0 0 1-3.06-1.5 7.52 7.52 0 0 1-1.04-4.33 7.52 7.52 0 0 1 1.04-4.33 3.5 3.5 0 0 1 3.06-1.5 3.35 3.35 0 0 1 1.87.5 2.62 2.62 0 0 1 1.07 1.5h.2V28.5h1.19v16.07h-1.2zm-2.82.95a3.35 3.35 0 0 0 1.1-.17 2.8 2.8 0 0 0 .9-.5 2.3 2.3 0 0 0 .6-.79 2.37 2.37 0 0 0 .22-1.02V36.7a2.36 2.36 0 0 0-.21-1.02 2.29 2.29 0 0 0-.61-.79 2.82 2.82 0 0 0-.9-.5 3.38 3.38 0 0 0-1.1-.17 2.8 2.8 0 0 0-2.33 1 4.36 4.36 0 0 0-.8 2.8v1.95a4.36 4.36 0 0 0 .8 2.8 2.8 2.8 0 0 0 2.33 1zM312.44 30.38a.82.82 0 0 1-.62-.2.73.73 0 0 1-.19-.52v-.3a.73.73 0 0 1 .19-.52 1.08 1.08 0 0 1 1.24 0 .73.73 0 0 1 .18.52v.3a.73.73 0 0 1-.18.52.82.82 0 0 1-.62.2zm-.61 3.06h1.2v11.12h-1.2zM316.63 44.56V33.44h1.2v1.74h.17a2.79 2.79 0 0 1 1.05-1.47 3.31 3.31 0 0 1 1.95-.53 2.95 2.95 0 0 1 2.37 1 4.46 4.46 0 0 1 .84 2.96v7.42h-1.19V37.2a3.46 3.46 0 0 0-.61-2.19 2.2 2.2 0 0 0-1.85-.77 3.2 3.2 0 0 0-1.06.17 2.48 2.48 0 0 0-.87.51 2.43 2.43 0 0 0-.59.83 2.66 2.66 0 0 0-.22 1.1v7.73zM335.92 45.86a2.8 2.8 0 0 1-1.19 2.54 6.82 6.82 0 0 1-3.66.77 5.84 5.84 0 0 1-3.34-.73 2.44 2.44 0 0 1-1-2.1 2.23 2.23 0 0 1 .48-1.52 2.28 2.28 0 0 1 1.26-.72v-.24a1.5 1.5 0 0 1-.96-1.5 1.77 1.77 0 0 1 .44-1.2 1.82 1.82 0 0 1 1.23-.6v-.2a3 3 0 0 1-1.32-1.25 4.32 4.32 0 0 1-.48-2.14 3.76 3.76 0 0 1 .99-2.84 3.7 3.7 0 0 1 2.68-.95 4.15 4.15 0 0 1 2 .48V33a.77.77 0 0 1 .91-.9h1.72v1.04h-2.02v.95a3.27 3.27 0 0 1 .78 1.2 4.6 4.6 0 0 1 .28 1.68 3.37 3.37 0 0 1-3.67 3.77 5.48 5.48 0 0 1-1.08-.1 2.24 2.24 0 0 0-1.07.54 1.19 1.19 0 0 0-.37.87.9.9 0 0 0 .34.76 1.85 1.85 0 0 0 1.12.26h2.54a3.85 3.85 0 0 1 2.6.7 2.67 2.67 0 0 1 .79 2.09zm-1.13.07a1.64 1.64 0 0 0-.5-1.29 2.75 2.75 0 0 0-1.8-.45h-3.28a1.96 1.96 0 0 0-1.37 1.92 1.89 1.89 0 0 0 .64 1.52 2.95 2.95 0 0 0 1.94.54h1.28a4.1 4.1 0 0 0 2.3-.53 1.9 1.9 0 0 0 .79-1.7zm-3.74-6.17a2.5 2.5 0 0 0 1.82-.61 2.3 2.3 0 0 0 .64-1.74v-.9a2.3 2.3 0 0 0-.64-1.73 2.98 2.98 0 0 0-3.63 0 2.3 2.3 0 0 0-.64 1.74v.89a2.3 2.3 0 0 0 .64 1.74 2.5 2.5 0 0 0 1.81.61zM268.91 56.45a.82.82 0 0 1-.62-.2.73.73 0 0 1-.18-.53v-.3a.73.73 0 0 1 .18-.52 1.08 1.08 0 0 1 1.24 0 .73.73 0 0 1 .18.52v.3a.73.73 0 0 1-.18.52.82.82 0 0 1-.62.2zm-.6 3.06h1.19v11.12h-1.2zM273.1 70.63V59.5h1.2v1.74h.17a2.79 2.79 0 0 1 1.06-1.48 3.31 3.31 0 0 1 1.94-.52 2.95 2.95 0 0 1 2.37.99 4.46 4.46 0 0 1 .85 2.96v7.43h-1.2v-7.38a3.46 3.46 0 0 0-.6-2.19 2.2 2.2 0 0 0-1.85-.77 3.2 3.2 0 0 0-1.07.17 2.47 2.47 0 0 0-.87.52 2.42 2.42 0 0 0-.58.82 2.68 2.68 0 0 0-.22 1.1v7.73zM285.9 70.63a1.37 1.37 0 0 1-.98-.3 1.3 1.3 0 0 1-.3-.96v-8.82h-1.72v-1.04h1.15a.6.6 0 0 0 .54-.2 1.18 1.18 0 0 0 .13-.63V56.4h1.09v3.1h2.22v1.05h-2.22v9.03h2.1v1.05zM294.24 70.89a4.66 4.66 0 0 1-1.8-.34 3.58 3.58 0 0 1-1.4-1.04 4.9 4.9 0 0 1-.9-1.8 11.21 11.21 0 0 1 0-5.28 4.92 4.92 0 0 1 .9-1.8 3.6 3.6 0 0 1 1.4-1.04 4.66 4.66 0 0 1 1.8-.34 3.77 3.77 0 0 1 3.1 1.38 6.88 6.88 0 0 1 1.11 4.36v.32h-7.34v.76a4.26 4.26 0 0 0 .82 2.82 2.85 2.85 0 0 0 2.31.96 3.27 3.27 0 0 0 1.99-.55 3.66 3.66 0 0 0 1.18-1.66l.83.56a3.88 3.88 0 0 1-4 2.7zm0-10.6a2.83 2.83 0 0 0-2.32.99 4.35 4.35 0 0 0-.81 2.83v.29h6.06v-.28a4.73 4.73 0 0 0-.73-2.84 2.56 2.56 0 0 0-2.2-.99zM302.51 70.63a1.07 1.07 0 0 1-1.26-1.26V54.56h1.2v15.03h1.5v1.04zM307.5 70.63a1.07 1.07 0 0 1-1.25-1.26V54.56h1.2v15.03h1.5v1.04zM312.05 56.45a.82.82 0 0 1-.62-.2.73.73 0 0 1-.19-.53v-.3a.73.73 0 0 1 .19-.52 1.08 1.08 0 0 1 1.24 0 .73.73 0 0 1 .18.52v.3a.73.73 0 0 1-.18.52.82.82 0 0 1-.62.2zm-.61 3.06h1.2v11.12h-1.2zM324.5 71.92a2.8 2.8 0 0 1-1.2 2.54 6.81 6.81 0 0 1-3.65.77 5.82 5.82 0 0 1-3.35-.72 2.44 2.44 0 0 1-1-2.1 2.23 2.23 0 0 1 .48-1.53 2.28 2.28 0 0 1 1.26-.71v-.24a1.5 1.5 0 0 1-.95-1.51 1.77 1.77 0 0 1 .43-1.2 1.83 1.83 0 0 1 1.24-.59v-.2a3 3 0 0 1-1.33-1.26 4.3 4.3 0 0 1-.47-2.14 3.77 3.77 0 0 1 .98-2.84 3.7 3.7 0 0 1 2.69-.95 4.17 4.17 0 0 1 2 .48v-.65a.77.77 0 0 1 .91-.91h1.72v1.04h-2.02v.95a3.3 3.3 0 0 1 .78 1.2 4.6 4.6 0 0 1 .28 1.68 3.37 3.37 0 0 1-3.67 3.77 5.55 5.55 0 0 1-1.09-.1 2.23 2.23 0 0 0-1.06.54 1.18 1.18 0 0 0-.37.87.9.9 0 0 0 .34.76 1.86 1.86 0 0 0 1.11.26h2.54a3.85 3.85 0 0 1 2.6.7 2.67 2.67 0 0 1 .8 2.09zm-1.14.08a1.64 1.64 0 0 0-.5-1.3 2.75 2.75 0 0 0-1.8-.44h-3.28a1.96 1.96 0 0 0-1.36 1.91 1.88 1.88 0 0 0 .64 1.52 2.95 2.95 0 0 0 1.94.55h1.28a4.11 4.11 0 0 0 2.3-.53 1.9 1.9 0 0 0 .78-1.71zm-3.73-6.17a2.5 2.5 0 0 0 1.81-.62 2.3 2.3 0 0 0 .64-1.74v-.88a2.3 2.3 0 0 0-.64-1.75 2.98 2.98 0 0 0-3.63 0 2.3 2.3 0 0 0-.64 1.75v.88a2.3 2.3 0 0 0 .64 1.74 2.5 2.5 0 0 0 1.82.62zM330.07 70.89a4.66 4.66 0 0 1-1.79-.34 3.57 3.57 0 0 1-1.4-1.04 4.9 4.9 0 0 1-.9-1.8 11.21 11.21 0 0 1 0-5.28 4.92 4.92 0 0 1 .9-1.8 3.6 3.6 0 0 1 1.4-1.04 4.66 4.66 0 0 1 1.8-.34 3.77 3.77 0 0 1 3.1 1.38 6.88 6.88 0 0 1 1.11 4.36v.32h-7.34v.76a4.26 4.26 0 0 0 .82 2.82 2.85 2.85 0 0 0 2.31.96 3.27 3.27 0 0 0 1.99-.55 3.66 3.66 0 0 0 1.18-1.66l.83.56a3.88 3.88 0 0 1-4 2.7zm0-10.6a2.83 2.83 0 0 0-2.3.99 4.35 4.35 0 0 0-.82 2.83v.29H333v-.28a4.73 4.73 0 0 0-.73-2.84 2.56 2.56 0 0 0-2.2-.99zM337.1 70.63V59.5h1.19v1.74h.17a2.79 2.79 0 0 1 1.05-1.48 3.3 3.3 0 0 1 1.95-.52 2.95 2.95 0 0 1 2.36.99 4.46 4.46 0 0 1 .85 2.96v7.43h-1.2v-7.38a3.46 3.46 0 0 0-.6-2.19 2.2 2.2 0 0 0-1.85-.77 3.21 3.21 0 0 0-1.06.17 2.48 2.48 0 0 0-.87.52 2.43 2.43 0 0 0-.59.82 2.68 2.68 0 0 0-.21 1.1v7.73zM351.64 70.89a3.91 3.91 0 0 1-3.18-1.37 6.95 6.95 0 0 1-1.14-4.45 6.95 6.95 0 0 1 1.14-4.45 4.46 4.46 0 0 1 5.52-.73 3.8 3.8 0 0 1 1.33 1.72l-1 .5a2.9 2.9 0 0 0-.97-1.36 2.83 2.83 0 0 0-1.7-.46 2.72 2.72 0 0 0-2.28.97 4.5 4.5 0 0 0-.76 2.83v1.96a4.5 4.5 0 0 0 .76 2.83 2.72 2.72 0 0 0 2.28.97 3.12 3.12 0 0 0 1.8-.48 3.24 3.24 0 0 0 1.11-1.43l.89.6a4.08 4.08 0 0 1-1.43 1.72 4.15 4.15 0 0 1-2.37.63zM361.29 70.89a4.66 4.66 0 0 1-1.8-.34 3.57 3.57 0 0 1-1.4-1.04 4.9 4.9 0 0 1-.9-1.8 11.21 11.21 0 0 1 0-5.28 4.92 4.92 0 0 1 .9-1.8 3.6 3.6 0 0 1 1.4-1.04 4.66 4.66 0 0 1 1.8-.34 3.77 3.77 0 0 1 3.1 1.38 6.88 6.88 0 0 1 1.11 4.35v.33h-7.34v.76a4.26 4.26 0 0 0 .81 2.81 2.85 2.85 0 0 0 2.32.97 3.27 3.27 0 0 0 1.99-.56 3.66 3.66 0 0 0 1.18-1.66l.82.56a3.88 3.88 0 0 1-4 2.7zm0-10.6a2.83 2.83 0 0 0-2.32.99 4.35 4.35 0 0 0-.81 2.83v.29h6.06v-.28a4.73 4.73 0 0 0-.73-2.84 2.56 2.56 0 0 0-2.2-.99z"/>
</svg>
